<?xml version="1.0" standalone="no"?>
<!DOCTYPE svg PUBLIC "-//W3C//DTD SVG 20010904//EN"
 "http://www.w3.org/TR/2001/REC-SVG-20010904/DTD/svg10.dtd">
<svg version="1.0" xmlns="http://www.w3.org/2000/svg"
 width="512.000000pt" height="512.000000pt" viewBox="0 0 512.000000 512.000000"
 preserveAspectRatio="xMidYMid meet">
<metadata>
Created by potrace 1.14, written by Peter Selinger 2001-2017
</metadata>
<g transform="translate(0.000000,512.000000) scale(0.100000,-0.100000)"
fill="#000000" stroke="none">
<path d="M993 5107 c-18 -6 -33 -15 -33 -19 0 -4 -6 -8 -13 -8 -19 0 -71 -59
-93 -105 -18 -39 -19 -90 -20 -1490 -1 -888 2 -1462 7 -1481 7 -21 20 -36 39
-44 29 -12 30 -15 30 -75 0 -59 -2 -63 -25 -69 -53 -13 -52 1 -50 -841 1 -429
5 -791 8 -803 17 -67 93 -142 165 -162 54 -15 2032 -14 2065 1 14 6 30 22 36
35 6 13 19 24 28 25 106 6 115 4 124 -18 4 -12 20 -29 34 -39 22 -14 50 -16
232 -11 182 4 216 7 273 27 163 56 280 142 365 271 57 84 83 145 104 244 16
75 18 220 16 2235 -1 2040 -2 2157 -18 2195 -25 55 -63 93 -122 121 l-50 24
-1535 -2 c-1060 0 -1545 -4 -1567 -11z"/>
</g>
</svg>
